<svg width="110" height="138" viewBox="0 0 110 138" fill="none" xmlns="http://www.w3.org/2000/svg">
<path d="M65.3763 95.6494C65.0242 96.0222 64.6705 96.3965 64.318 96.7724C64.318 96.7735 64.3167 96.7739 64.3163 96.7745C62.0146 99.2227 59.3736 102.071 57.1727 104.619C56.6201 105.255 55.8308 105.614 54.9998 105.614C54.583 105.614 54.1765 105.523 53.8055 105.353C52.8275 104.904 53.2744 104.836 44.6228 95.6494C31.7505 97.1812 26.1572 101.026 26.1572 102.726C26.1572 105.022 35.97 110.4 54.9994 110.4C74.0287 110.4 83.8421 105.022 83.8421 102.726C83.8423 101.026 78.2489 97.1806 65.3763 95.6494Z" fill="black"/>
<path d="M55 98.372C70.3577 81.2667 94.415 60.1671 94.415 39.3589C94.415 17.6571 76.7336 0 55 0C33.266 0 15.585 17.6571 15.585 39.3589C15.585 60.132 39.5366 81.1675 55 98.372ZM21.1258 39.3561C21.1258 20.689 36.3219 5.5021 55.0006 5.5021C73.6772 5.5021 88.8725 20.689 88.8725 39.3561C88.8725 58.0251 73.6772 73.2131 55.0006 73.2131C36.3219 73.2131 21.1258 58.0253 21.1258 39.3561Z" fill="black"/>
<path d="M73.0571 36.531H67.752L63.8107 39.8004V32.3717H63.7208L59.21 17.3305V14.4897H60.0741C60.1695 14.4897 60.2469 14.4123 60.2469 14.3168C60.2469 14.2212 60.1696 14.1442 60.0741 14.1442H59.21V13.1729C59.21 13.0775 59.1328 13 59.0372 13C58.9419 13 58.8645 13.0775 58.8645 13.1729V14.1442H58.003C57.9079 14.1442 57.83 14.2212 57.83 14.3168C57.83 14.4123 57.9078 14.4897 58.003 14.4897H58.8645V17.3305L54.3551 32.3717V34.7632H50.6812L48.5909 38.3994V33.1025L44.1632 27.5992H36.4276L32 33.1025V49L56.6016 48.9981V42.5129C56.6016 41.39 57.4768 40.4974 58.5784 40.4218C59.6776 40.495 60.554 41.39 60.554 42.5129V48.9981H77V39.8006L73.0571 36.531ZM35.5708 39.6778H33.7805V36.8654H35.5708V39.6778ZM38.1197 39.6778H36.3294V36.8654H38.1195V39.6778H38.1197ZM44.0195 39.6778H42.2322V36.8654H44.0195V39.6778ZM44.0195 36.1989H42.2322V33.3844H44.0195V36.1989ZM46.5674 39.6778H44.7797V36.8654H46.5672V39.6778H46.5674ZM46.5674 36.1989H44.7797V33.3844H46.5672V36.1989H46.5674ZM51.8656 44.1751H50.0756V41.3577H51.8656V44.1751ZM57.5678 36.531H55.8802V34.4342C55.8802 33.9696 56.2548 33.592 56.7234 33.592C57.1919 33.592 57.5663 33.9696 57.5663 34.4342V36.531H57.5678ZM60.7309 36.531H59.0386V34.4342C59.0386 33.9696 59.4177 33.592 59.8864 33.592C60.3508 33.592 60.7293 33.9696 60.7293 34.4342V36.531H60.7309ZM67.3732 44.1751H65.5816V41.3577H67.3732V44.1751ZM69.9216 44.1751H68.1318V41.3577H69.9216V44.1751ZM75.2453 44.1751H73.4581V41.3577H75.2453V44.1751Z" fill="black"/>
</svg>
