<svg width="100" height="125" viewBox="0 0 100 125" fill="none" xmlns="http://www.w3.org/2000/svg">
<path d="M82.995 24.148C82.817 23.339 82.018 22.826 81.208 23.005C78.283 23.649 75.241 25.671 73.409 27.06C72.615 25.109 71.487 23.317 70.001 21.702C69.441 21.092 68.491 21.055 67.882 21.614C67.273 22.175 67.233 23.124 67.794 23.734C69.442 25.527 74.417 30.946 70.031 43.738C68.53 44.923 67.861 46.533 67.666 48.081C67.135 48.045 66.604 48.3 66.304 48.782C65.864 49.484 66.075 50.409 66.778 50.849C67.339 51.201 68.043 51.945 68.266 52.202C68.729 52.734 69.501 52.869 70.12 52.527C70.738 52.186 71.035 51.457 70.832 50.78C70.707 50.361 69.706 46.653 73.113 45.426C73.684 45.221 73.966 45.31 74.148 45.409C75.335 46.06 76.032 49.151 76.493 51.197C76.59 51.623 76.681 52.03 76.773 52.407C77.303 54.583 75.485 56.376 73.236 58.328L72.91 58.611C70.64 60.594 68.244 60.013 67.187 59.358C66.311 58.815 64.678 57.295 63.099 55.823C61.787 54.601 60.431 53.338 59.184 52.31C58.544 51.783 57.598 51.874 57.073 52.513C56.546 53.153 56.637 54.098 57.276 54.624C58.453 55.594 59.775 56.826 61.054 58.018C62.893 59.731 64.481 61.21 65.607 61.909C66.439 62.424 67.451 62.78 68.546 62.914C68.026 63.768 67.34 64.433 66.581 64.773C65.912 65.074 65.26 65.094 64.642 64.834C63.271 64.26 57.99 60.104 48.945 52.48L47.815 51.53C47.178 51 46.233 51.086 45.703 51.722C45.173 52.358 45.259 53.304 45.895 53.834L47.012 54.773C49.624 56.975 51.881 58.853 53.832 60.452C53.921 63.81 54.883 68.648 55.911 73.773C57.18 80.1 58.758 87.974 57.773 90.404C57.11 92.042 56.099 92.947 54.926 92.953C54.922 92.953 54.919 92.954 54.915 92.954C54.058 92.954 53.249 92.449 52.95 91.732C52.587 90.796 49.761 80.047 47.491 71.411C45.682 64.53 43.974 58.031 43.338 55.806C43.109 55.008 42.277 54.548 41.484 54.776C40.688 55.004 40.226 55.834 40.454 56.63C40.734 57.611 41.231 59.453 41.854 61.798C36.056 66.221 23.262 82.459 23.129 82.631C21.672 84.503 19.909 84.903 18.987 84.976C17.861 85.065 17.068 84.757 16.839 84.541C16.217 83.959 15.177 82.983 17.04 80.33C17.225 80.067 35.925 53.027 37.626 48.68C38.321 46.903 38.61 45.608 39.011 43.815C39.514 41.563 40.203 38.478 42.157 32.43C45.789 21.189 50.997 14.883 60.134 10.665C60.886 10.318 61.214 9.42704 60.867 8.67404C60.518 7.92304 59.631 7.59104 58.876 7.94104C49.024 12.49 43.17 19.539 39.303 31.508C37.306 37.688 36.6 40.851 36.084 43.161C35.699 44.885 35.445 46.023 34.833 47.586C33.441 51.143 17.194 74.895 14.586 78.605C11.808 82.56 13.162 85.206 14.788 86.73C15.648 87.537 17.038 87.991 18.588 87.991C18.797 87.991 19.009 87.983 19.223 87.967C20.638 87.856 23.333 87.254 25.497 84.473C28.735 80.313 37.923 69.146 42.696 64.977C43.282 67.198 43.929 69.66 44.591 72.174C47.822 84.467 49.81 91.994 50.179 92.879C50.947 94.721 52.848 95.954 54.916 95.954C54.925 95.954 54.934 95.953 54.942 95.953C56.093 95.947 58.945 95.505 60.554 91.53C61.875 88.266 60.407 80.94 58.852 73.183C58.136 69.613 57.41 65.968 57.049 63.051C60.443 65.744 62.486 67.183 63.483 67.6C64.136 67.874 64.825 68.011 65.521 68.011C66.261 68.011 67.009 67.852 67.727 67.542C69.557 69.29 72.835 71.941 75.014 73.072C75.498 73.324 76.024 73.447 76.561 73.447C77.384 73.447 78.234 73.157 79.003 72.589C80.758 71.294 82.244 68.424 81.609 64.932C81.003 61.595 79.052 59.33 77.749 58.144C79.211 56.458 80.331 54.335 79.687 51.696C79.599 51.336 79.511 50.945 79.419 50.537C78.771 47.661 77.963 44.08 75.59 42.779C75.122 42.523 74.452 42.289 73.608 42.311C74.857 37.8 75.106 33.733 74.35 30.137C75.694 29.039 78.954 26.574 81.852 25.936C82.662 25.758 83.173 24.958 82.995 24.148ZM78.659 65.47C79.043 67.58 78.226 69.435 77.222 70.176C77.098 70.269 76.668 70.55 76.396 70.411C74.667 69.513 71.901 67.311 70.184 65.73C70.951 64.871 71.572 63.816 71.982 62.62C71.99 62.599 71.991 62.576 71.998 62.554C72.98 62.22 73.961 61.679 74.885 60.871L75.203 60.594C75.332 60.482 75.465 60.366 75.6 60.247C76.55 61.085 78.185 62.858 78.659 65.47Z" fill="black"/>
</svg>
